<svg height="36" viewBox="0 0 122 36" width="122" xmlns="http://www.w3.org/2000/svg">
    <title>badge_google_play_36dp</title>
    <defs>
        <linearGradient id="a" x1="91.407%" x2="-38.353%" y1="4.961%" y2="71.942%">
            <stop offset="0%" stop-color="#00A0FF" />
            <stop offset=".657%" stop-color="#00A1FF" />
            <stop offset="26.01%" stop-color="#00BEFF" />
            <stop offset="51.22%" stop-color="#00D2FF" />
            <stop offset="76.04%" stop-color="#00DFFF" />
            <stop offset="100%" stop-color="#00E3FF" />
        </linearGradient>
        <linearGradient id="b" x1="107.61%" x2="-130.522%" y1="50.017%" y2="50.017%">
            <stop offset="0%" stop-color="#FFE000" />
            <stop offset="40.87%" stop-color="#FFBD00" />
            <stop offset="77.54%" stop-color="#FFA500" />
            <stop offset="100%" stop-color="#FF9C00" />
        </linearGradient>
        <linearGradient id="c" x1="86.247%" x2="-50.121%" y1="17.849%" y2="194.763%">
            <stop offset="0%" stop-color="#FF3A44" />
            <stop offset="100%" stop-color="#C31162" />
        </linearGradient>
        <linearGradient id="d" x1="-18.79%" x2="42.103%" y1="-54.184%" y2="24.858%">
            <stop offset="0%" stop-color="#32A071" />
            <stop offset="6.85%" stop-color="#2DA771" />
            <stop offset="47.62%" stop-color="#15CF74" />
            <stop offset="80.09%" stop-color="#06E775" />
            <stop offset="100%" stop-color="#00F076" />
        </linearGradient>
    </defs>
    <g fill="none" fill-rule="evenodd">
        <path
            d="M117.48 36H4.52C2.03 36 0 33.97 0 31.5v-27C0 2.02 2.03 0 4.52 0h112.96c2.49 0 4.52 2.02 4.52 4.5v27c0 2.47-2.03 4.5-4.52 4.5z"
            fill="#000" />
        <path
            d="M117.48.72c2.09 0 3.8 1.7 3.8 3.78v27c0 2.08-1.7 3.78-3.8 3.78H4.52c-2.09 0-3.8-1.7-3.8-3.78v-27c0-2.08 1.7-3.78 3.8-3.78h112.96zm0-.72H4.52C2.03 0 0 2.03 0 4.5v27C0 33.98 2.03 36 4.52 36h112.96c2.49 0 4.52-2.02 4.52-4.5v-27c0-2.47-2.03-4.5-4.52-4.5z"
            fill="#A6A6A6" />
        <path
            d="M42.68 9.22c0 .75-.22 1.35-.67 1.8-.51.53-1.17.8-1.98.8-.78 0-1.44-.27-1.99-.81S37.22 9.8 37.22 9c0-.8.27-1.47.82-2.01.54-.54 1.21-.81 1.99-.81.39 0 .76.08 1.11.23.35.15.63.35.84.6l-.48.47c-.36-.43-.85-.64-1.48-.64-.57 0-1.06.2-1.47.6-.41.4-.62.92-.62 1.56s.21 1.16.62 1.56c.41.4.91.6 1.47.6.6 0 1.11-.2 1.51-.6.26-.26.41-.63.45-1.09h-1.96v-.66h2.62c.02.14.04.28.04.41zm4.14-2.26h-2.46v1.71h2.22v.65h-2.22v1.71h2.46v.66h-3.15V6.3h3.15zm2.93 4.74h-.69V6.96h-1.51V6.3h3.71v.66h-1.51v4.74zm4.19 0V6.3h.69v5.4zm3.78 0h-.69V6.96h-1.51V6.3h3.71v.66h-1.51v4.74zm8.53-.7c-.53.55-1.19.82-1.98.82s-1.45-.27-1.98-.82a2.77 2.77 0 0 1-.8-2c0-.79.26-1.46.8-2 .53-.55 1.19-.82 1.98-.82.78 0 1.44.27 1.98.82.53.55.8 1.21.8 2-.01.79-.27 1.46-.8 2zm-3.45-.45c.4.4.89.61 1.47.61s1.07-.2 1.47-.61c.4-.4.6-.92.6-1.55s-.2-1.15-.6-1.55c-.4-.4-.89-.61-1.47-.61s-1.07.2-1.47.61c-.4.4-.6.92-.6 1.55s.2 1.15.6 1.55zm5.22 1.15V6.3h.84l2.62 4.2h.03l-.03-1.04V6.3h.69v5.4h-.72L68.7 7.3h-.03l.03 1.04v3.36z"
            fill="#FFF" stroke="#FFF" stroke-width=".18" />
        <path
            d="M61.32 19.58c-2.12 0-3.84 1.61-3.84 3.83 0 2.2 1.73 3.83 3.84 3.83 2.12 0 3.84-1.62 3.84-3.83 0-2.22-1.72-3.83-3.84-3.83zm0 6.14c-1.16 0-2.16-.96-2.16-2.32 0-1.38 1-2.32 2.16-2.32 1.16 0 2.16.94 2.16 2.32 0 1.37-1 2.32-2.16 2.32zm-8.38-6.14c-2.12 0-3.84 1.61-3.84 3.83 0 2.2 1.73 3.83 3.84 3.83 2.12 0 3.84-1.62 3.84-3.83 0-2.22-1.72-3.83-3.84-3.83zm0 6.14c-1.16 0-2.16-.96-2.16-2.32 0-1.38 1-2.32 2.16-2.32 1.16 0 2.16.94 2.16 2.32 0 1.37-1 2.32-2.16 2.32zm-9.97-4.97v1.62h3.89c-.12.91-.42 1.58-.88 2.04-.57.57-1.45 1.19-3 1.19-2.39 0-4.26-1.93-4.26-4.32 0-2.39 1.87-4.32 4.26-4.32 1.29 0 2.23.51 2.93 1.16l1.15-1.15c-.97-.93-2.26-1.64-4.07-1.64-3.28 0-6.03 2.67-6.03 5.94 0 3.28 2.75 5.94 6.03 5.94 1.77 0 3.1-.58 4.15-1.67 1.07-1.07 1.41-2.58 1.41-3.8 0-.38-.03-.72-.09-1.01h-5.49v.02zm40.78 1.26c-.32-.86-1.29-2.44-3.28-2.44-1.97 0-3.61 1.55-3.61 3.83 0 2.15 1.62 3.83 3.8 3.83 1.75 0 2.77-1.07 3.19-1.7l-1.3-.87c-.43.64-1.03 1.06-1.88 1.06-.86 0-1.46-.39-1.86-1.16l5.12-2.12-.18-.43zm-5.22 1.28c-.04-1.48 1.15-2.23 2-2.23.67 0 1.23.33 1.42.81l-3.42 1.42zM74.37 27h1.68V15.75h-1.68V27zm-2.76-6.57h-.06c-.38-.45-1.1-.86-2.02-.86-1.91 0-3.67 1.68-3.67 3.84 0 2.15 1.75 3.81 3.67 3.81.91 0 1.64-.41 2.02-.87h.06v.55c0 1.46-.78 2.25-2.04 2.25-1.03 0-1.67-.74-1.93-1.36l-1.46.61c.42 1.01 1.54 2.26 3.39 2.26 1.97 0 3.64-1.16 3.64-3.99V19.8h-1.59v.63h-.01zm-1.93 5.29c-1.16 0-2.13-.97-2.13-2.31 0-1.35.97-2.33 2.13-2.33 1.15 0 2.04.99 2.04 2.33.01 1.34-.89 2.31-2.04 2.31zm21.94-9.97H87.6V27h1.68v-4.26h2.34c1.86 0 3.69-1.35 3.69-3.49s-1.82-3.5-3.69-3.5zm.05 5.42h-2.39v-3.86h2.39c1.26 0 1.97 1.04 1.97 1.93 0 .88-.72 1.93-1.97 1.93zm10.38-1.61c-1.22 0-2.48.54-3 1.72l1.49.62c.32-.62.91-.83 1.53-.83.87 0 1.75.52 1.77 1.45v.12c-.3-.17-.96-.43-1.75-.43-1.61 0-3.24.88-3.24 2.53 0 1.51 1.32 2.48 2.79 2.48 1.13 0 1.75-.51 2.14-1.1h.06v.87h1.62v-4.31c0-2.01-1.49-3.12-3.41-3.12zm-.21 6.16c-.55 0-1.32-.27-1.32-.96 0-.87.96-1.2 1.78-1.2.74 0 1.09.16 1.53.38a2.022 2.022 0 0 1-1.99 1.78zm9.53-5.92l-1.93 4.88h-.06l-2-4.88h-1.81l3 6.82-1.71 3.79h1.75l4.62-10.61h-1.86zM96.24 27h1.68V15.75h-1.68V27z"
            fill="#FFF" />
        <path
            d="M1.39.78c-.26.28-.41.71-.41 1.27v19.9c0 .56.15.99.42 1.26l.07.06 11.15-11.15v-.25L1.46.72l-.07.06z"
            fill="url(#a)" transform="translate(8 6)" />
        <path
            d="M16.33 15.85l-3.72-3.72v-.26l3.72-3.72.08.05 4.4 2.5c1.26.71 1.26 1.88 0 2.6l-4.4 2.5-.08.05z"
            fill="url(#b)" transform="translate(8 6)" />
        <path d="M16.41 15.8l-3.8-3.8L1.39 23.22c.41.44 1.1.49 1.87.06l13.15-7.48" fill="url(#c)"
            transform="translate(8 6)" />
        <path d="M16.41 8.2L3.26.73C2.49.29 1.8.35 1.39.79L12.61 12l3.8-3.8z" fill="url(#d)"
            transform="translate(8 6)" />
        <path
            d="M24.33 21.72l-13.06 7.42c-.73.42-1.38.39-1.8.01l-.07.07.07.06c.42.38 1.07.41 1.8-.01l13.15-7.47-.09-.08z"
            fill="#000" opacity=".2" />
        <path
            d="M28.81 19.17l-4.49 2.55.08.08 4.4-2.5c.63-.36.94-.83.94-1.3-.04.43-.36.84-.93 1.17z"
            fill="#000" opacity=".12" />
        <path
            d="M11.26 6.86l17.55 9.97c.57.32.89.74.94 1.17 0-.47-.31-.94-.94-1.3L11.26 6.73C10 6.01 8.98 6.61 8.98 8.05v.13c0-1.44 1.02-2.03 2.28-1.32z"
            fill="#FFF" opacity=".25" />
    </g>
</svg>